<?xml version="1.0" encoding="UTF-8"?><svg id="Layer_1" xmlns="http://www.w3.org/2000/svg" xmlns:xlink="http://www.w3.org/1999/xlink" viewBox="0 0 1296 880"><defs><style>.cls-1{mask:url(#mask);}.cls-2,.cls-3{fill:#cef;}.cls-2,.cls-4,.cls-5,.cls-6,.cls-7,.cls-8,.cls-9,.cls-10,.cls-11,.cls-12{stroke:#5f6368;}.cls-2,.cls-4,.cls-5,.cls-6,.cls-13,.cls-8,.cls-14,.cls-15,.cls-10,.cls-11,.cls-12{stroke-width:4.67px;}.cls-3,.cls-16,.cls-17,.cls-18{fill-rule:evenodd;}.cls-19{fill:#f6c;}.cls-16,.cls-6,.cls-20{fill:#fff;}.cls-4{fill:#dadce0;}.cls-5,.cls-21{fill:#6cf;}.cls-22{fill:#e5efff;}.cls-7{stroke-dasharray:9.34 9.34;stroke-width:2.33px;}.cls-7,.cls-13,.cls-14,.cls-15,.cls-11{fill:none;}.cls-23,.cls-17{fill:#c6f;}.cls-13,.cls-14,.cls-15{stroke-linejoin:round;}.cls-13,.cls-15{stroke:#f39;}.cls-8{fill:#39f;}.cls-14{stroke:#93f;}.cls-9{fill:#06f;stroke-miterlimit:4;stroke-width:4.67px;}.cls-15{stroke-linecap:square;}.cls-24{fill:#5f6368;}.cls-10{fill:#fed;}.cls-18,.cls-25{fill:#f63;}.cls-12{fill:#303030;}</style><mask id="mask" x="446.13" y="113.69" width="690.37" height="408.22" maskUnits="userSpaceOnUse"><g id="mask0"><polygon class="cls-20" points="535.92 116.02 1133.67 116.02 1056.03 519.58 458.28 519.58 535.92 116.02"/></g></mask></defs><rect class="cls-22" width="1296" height="880" rx="32.8" ry="32.8"/><path class="cls-7" d="M162.33,448.02c96.83-167.74,278.07-280.63,485.67-280.63s388.84,112.89,485.67,280.63"/><polygon class="cls-6" points="535.92 116.02 1133.67 116.02 1056.03 519.58 458.28 519.58 535.92 116.02"/><g class="cls-1"><path class="cls-11" d="M636.83,368.24l-7.06,36.69M618.15,368.24l-3.53,18.35M655.51,368.24l-5.29,27.52"/><path class="cls-11" d="M635.22,473.72c3.12-16.21-7.22-29.35-23.09-29.35-.6,0-1.2.02-1.81.06-1.49-25.35-20.4-44.08-47.2-44.08-21.53,0-42.62,12.09-55.91,29.98-2.3-.42-4.71-.64-7.21-.64-23.81,0-46.9,19.71-51.58,44.02"/><path class="cls-11" d="M808.63,446.2c2.34-12.16-6.06-22.01-18.75-22.01-.48,0-.96.01-1.44.04-1.43-19.01-16.74-33.06-38.19-33.06-17.22,0-33.98,9.06-44.44,22.49-1.84-.31-3.77-.48-5.78-.48-19.04,0-37.33,14.78-40.84,33.02"/><path class="cls-10" d="M618,271.94c4.45-23.09,19.7-44.84,41.18-58.7l8.53-5.5,6.42,5.5c16.15,13.86,23.04,35.6,18.59,58.7l-15.88,82.54h-74.72l15.88-82.54Z"/><path class="cls-18" d="M635.07,235.25h54.7c-3.35-8.47-8.62-15.99-15.64-22.01l-6.42-5.5-8.53,5.5c-9.34,6.02-17.5,13.54-24.12,22.01Z"/><path class="cls-24" d="M635.07,235.25l-1.8-1.15-2.69,3.44h4.04l.44-2.29ZM689.77,235.25l-.44,2.29h4.04l-1.36-3.44-2.25,1.15ZM674.13,213.24l1.75-1.83h0l-1.75,1.83ZM667.71,207.74l1.76-1.83-1.2-1.03-1.6,1.03,1.05,1.83ZM659.18,213.24l1.05,1.83-1.05-1.83ZM634.63,237.55h54.7l.88-4.59h-54.7l-.88,4.59ZM672.37,215.08c6.8,5.84,11.91,13.12,15.15,21.32l4.49-2.29c-3.46-8.74-8.89-16.49-16.13-22.7l-3.51,3.67ZM665.96,209.57l6.41,5.5,3.51-3.67-6.41-5.5-3.51,3.67ZM660.23,215.08l8.53-5.5-2.1-3.67-8.53,5.5,2.1,3.67ZM636.87,236.4c6.4-8.21,14.31-15.49,23.36-21.32l-2.1-3.67c-9.63,6.21-18.05,13.96-24.86,22.7l3.6,2.29Z"/><path class="cls-25" d="M574.1,354.49h28.02l5.29-27.52-33.31,27.52Z"/><path class="cls-25" d="M682.13,326.97l-5.29,27.52h28.02l-22.73-27.52Z"/><path class="cls-11" d="M574.1,354.49h28.02l5.29-27.52-33.31,27.52Z"/><path class="cls-11" d="M682.13,326.97l-5.29,27.52h28.02l-22.73-27.52Z"/><path class="cls-6" d="M658.01,258.18c10.32,0,17.1,8.21,15.15,18.34-1.95,10.13-11.89,18.34-22.21,18.34s-17.1-8.21-15.15-18.34,11.89-18.34,22.21-18.34Z"/><polygon class="cls-12" points="834.8 116.02 1133.67 116.02 1056.03 519.58 757.16 519.58 834.8 116.02"/><path class="cls-13" d="M895.18,183.92h152.48"/><path class="cls-15" d="M891.72,171.3l-13.95,12.63"/><path class="cls-15" d="M1055.53,171.05l9.09,12.63M886.28,197.03l-8.51-13.11,8.51,13.11Z"/><path class="cls-15" d="M1051.06,196.79l13.56-13.11"/><path class="cls-14" d="M922.05,235.39h131.15M867.87,235.39h23.54-23.54Z"/><path class="cls-13" d="M1010.69,286.87h33.34M857.97,286.87h23.53-23.53ZM913.62,286.87h69.13-69.13Z"/><path class="cls-14" d="M967.01,338.09h66.19M848.11,338.09h23.54-23.54ZM902.29,338.09h35.3-35.3Z"/><path class="cls-13" d="M894.1,389.56h75.5M838.21,389.56h23.53-23.53Z"/></g><polygon class="cls-4" points="271.49 519.57 1056.03 519.57 1048.98 556.26 264.43 556.26 271.49 519.57"/><polygon class="cls-6" points="271.49 519.57 869.24 519.57 862.18 556.26 264.43 556.26 271.49 519.57"/><path class="cls-8" d="M560.41,134.37c5.16,0,8.55,4.11,7.58,9.17s-5.95,9.17-11.1,9.17-8.55-4.11-7.58-9.17,5.95-9.17,11.1-9.17Z"/><path class="cls-2" d="M593.1,134.37c5.16,0,8.55,4.11,7.58,9.17s-5.95,9.17-11.1,9.17-8.55-4.11-7.58-9.17,5.95-9.17,11.1-9.17Z"/><path class="cls-5" d="M625.79,134.37c5.16,0,8.55,4.11,7.58,9.17s-5.95,9.17-11.1,9.17-8.55-4.11-7.58-9.17,5.95-9.17,11.1-9.17Z"/><path class="cls-4" d="M199.69,162.72h112.08c10.32,0,20.19,8.23,22.06,18.37l47.3,257.2c1.87,10.15-4.98,18.37-15.3,18.37h-112.08c-10.32,0-20.19-8.23-22.06-18.37l-47.3-257.2c-1.87-10.15,4.98-18.37,15.3-18.37Z"/><path class="cls-6" d="M213.7,162.72h112.08c10.32,0,20.19,8.23,22.06,18.37l47.3,257.2c1.87,10.15-4.98,18.37-15.3,18.37h-112.08c-10.32,0-20.19-8.23-22.06-18.37l-47.3-257.2c-1.87-10.15,4.98-18.37,15.3-18.37Z"/><path class="cls-11" d="M304.36,351.03l7.6,41.33M285.69,351.03l3.8,20.67M323.04,351.03l5.7,31"/><path class="cls-10" d="M273,296.57c-3.04-16.52,2.01-32.08,13.63-41.99,15.26,9.91,26.03,25.47,29.07,41.99l7.72,41.99h-42.7l-7.72-41.99Z"/><path class="cls-18" d="M273.13,277.54h35.44c-5.22-9.02-12.77-17.01-21.94-22.96-6.98,5.96-11.59,13.95-13.5,22.96ZM323.18,337.25h-42.7l.24,1.31h42.7l-.24-1.31Z"/><path class="cls-24" d="M273.13,277.54l-2.33-.83-.66,3.13h3.41l-.42-2.3ZM308.57,277.54l.42,2.3h3.41l-1.81-3.13-2.02.83ZM286.62,254.58l1.06-1.84-1.59-1.03-1.21,1.03,1.74,1.84ZM323.18,337.25h2.33l-.42-2.3h-2.33l.42,2.3ZM280.48,337.25l-.42-2.3h-2.33l.42,2.3h2.33ZM280.72,338.57h-2.33l.42,2.3h2.33l-.42-2.3ZM323.42,338.57l.42,2.3h2.33l-.42-2.3h-2.33ZM273.55,279.84h35.44l-.84-4.59h-35.44l.84,4.59ZM285.56,256.42c8.77,5.69,15.99,13.34,20.98,21.96l4.05-1.67c-5.45-9.41-13.33-17.75-22.9-23.97l-2.13,3.67ZM275.46,278.38c1.83-8.62,6.23-16.26,12.9-21.96l-3.48-3.67c-7.28,6.22-12.09,14.56-14.09,23.97l4.66,1.67ZM322.75,334.96h-42.7l.84,4.59h42.7l-.84-4.59ZM283.06,338.57l-.24-1.31h-4.67l.24,1.31h4.67ZM322.99,336.27h-42.7l.84,4.59h42.7l-.84-4.59ZM320.84,337.25l.24,1.31h4.67l-.24-1.31h-4.67Z"/><path class="cls-25" d="M264.71,338.56h16.01l-2.9-15.75-13.12,15.75Z"/><path class="cls-25" d="M320.52,322.82l2.9,15.75h16.01l-18.91-15.75Z"/><path class="cls-11" d="M264.71,338.56h16.01l-2.9-15.75-13.12,15.75Z"/><path class="cls-11" d="M320.52,322.82l2.9,15.75h16.01l-18.91-15.75Z"/><path class="cls-6" d="M292.3,285.42c5.9,0,11.54,4.7,12.6,10.5s-2.85,10.5-8.74,10.5-11.54-4.7-12.6-10.5,2.85-10.5,8.74-10.5Z"/><path class="cls-16" d="M922.59,839.86c3.68-18.11,5.6-36.85,5.6-56.04,0-154.75-125.45-280.2-280.2-280.2s-280.2,125.45-280.2,280.2c0,19.19,1.93,37.93,5.6,56.04h549.18Z"/><path class="cls-7" d="M373.41,839.86c-3.68-18.11-5.6-36.85-5.6-56.04,0-154.75,125.45-280.2,280.2-280.2s280.2,125.45,280.2,280.2c0,19.19-1.93,37.93-5.6,56.04"/><path class="cls-7" d="M676.02,675.7c-8.91-2.58-18.31-3.96-28.02-3.96-35.62,0-67.01,18.54-85.44,46.7"/><path class="cls-3" d="M872.11,779.54c-1.67-122.36-101.38-221.04-224.14-221.04s-222.47,98.68-224.13,221.05c.19,1.75,1.68,3.11,3.48,3.11h71.22c0-82.53,66.9-149.44,149.44-149.44s149.44,66.91,149.44,149.44h71.22c1.81,0,3.29-1.36,3.48-3.12Z"/><path class="cls-24" d="M872.11,779.54l2.32.26v-.14s.01-.14.01-.14l-2.33.03ZM423.84,779.54l-2.33-.03v.14s.01.14.01.14l2.32-.26ZM498.54,782.66v2.33h2.33v-2.33h-2.33ZM797.41,782.66h-2.33v2.33h2.33v-2.33ZM868.63,782.66v2.33-2.33ZM874.45,779.51c-1.69-123.64-102.43-223.34-226.47-223.34v4.67c121.48,0,220.15,97.65,221.8,218.73l4.67-.06ZM647.98,556.16c-124.04,0-224.79,99.71-226.47,223.35l4.67.07c1.65-121.09,100.32-218.74,221.8-218.74v-4.67ZM427.32,780.32c-.6,0-1.1-.45-1.16-1.03l-4.64.51c.32,2.92,2.8,5.19,5.8,5.19v-4.67ZM498.54,780.32h-71.22v4.67h71.22v-4.67ZM496.21,782.66h4.67-4.67ZM647.98,630.88c-83.82,0-151.77,67.95-151.77,151.77h4.67c0-81.24,65.86-147.1,147.1-147.1v-4.67ZM799.75,782.66c0-83.82-67.95-151.77-151.77-151.77v4.67c81.24,0,147.1,65.86,147.1,147.1h4.67ZM868.63,780.32h-71.22v4.67h71.22v-4.67ZM869.79,779.28c-.07.58-.56,1.04-1.16,1.04v4.67c3.01,0,5.48-2.27,5.8-5.2l-4.64-.51Z"/><path class="cls-17" d="M872.11,779.54c-.19,1.75-1.68,3.11-3.48,3.11h-71.22c0-41.26-16.73-78.62-43.77-105.67l52.84-52.84c39.88,39.88,64.8,94.72,65.63,155.39Z"/><path class="cls-24" d="M872.11,779.54l2.32.25v-.14s.01-.14.01-.14l-2.33.03ZM797.42,782.66h-2.33v2.33h2.33v-2.33ZM753.65,676.99l-1.65-1.65-1.65,1.65,1.65,1.65,1.65-1.65ZM806.48,624.15l1.65-1.65-1.65-1.65-1.65,1.65,1.65,1.65ZM869.79,779.28c-.07.58-.56,1.04-1.16,1.04v4.67c3.01,0,5.48-2.27,5.8-5.2l-4.64-.51ZM868.64,780.32h-71.22v4.67h71.22v-4.67ZM799.75,782.66c0-41.91-16.99-79.86-44.45-107.32l-3.31,3.3c26.62,26.62,43.09,63.39,43.09,104.02h4.67ZM755.3,678.64l52.83-52.83-3.3-3.31-52.84,52.84,3.31,3.3ZM804.83,625.81c39.47,39.47,64.13,93.73,64.95,153.76l4.67-.06c-.84-61.29-26.02-116.71-66.32-157.01l-3.3,3.31Z"/><path class="cls-6" d="M719.31,807.53c-3.63,10.15-9.51,19.68-17.64,27.81-29.38,29.38-77,29.38-106.38,0-29.37-29.37-29.37-77,0-106.37,8.13-8.13,17.66-14.01,27.81-17.64l155.06-68.15c5.88-2.59,11.88,3.4,9.29,9.29l-68.15,155.06Z"/><circle class="cls-9" cx="647.98" cy="782.65" r="37.36"/><path class="cls-7" d="M766.68,634.39c-32.95-26.37-74.08-42.03-118.68-42.03s-85.73,15.66-118.68,42.03"/><circle class="cls-21" cx="192.68" cy="787.33" r="23.35"/><rect class="cls-23" x="910.68" y="22.62" width="35.02" height="35.02"/><path class="cls-19" d="M1068.29,787.33l25.28,43.78h-50.56l25.28-43.78Z"/></svg>